<svg width="18" height="18" viewBox="0 0 18 18" fill="none" xmlns="http://www.w3.org/2000/svg">
<path opacity="0.4" d="M15.75 1.5V10.575C15.75 12 15 12.75 13.575 12.75H4.425C3 12.75 2.25 12 2.25 10.575V1.5H15.75Z" fill="white"/>
<path d="M16.5 2.0625H1.5C1.1925 2.0625 0.9375 1.8075 0.9375 1.5C0.9375 1.1925 1.1925 0.9375 1.5 0.9375H16.5C16.8075 0.9375 17.0625 1.1925 17.0625 1.5C17.0625 1.8075 16.8075 2.0625 16.5 2.0625Z" fill="white"/>
<path d="M12.5022 16.755C12.4047 16.95 12.2022 17.0625 11.9997 17.0625C11.9172 17.0625 11.8272 17.04 11.7522 17.0025L8.99971 15.63L6.2472 17.0025C6.1722 17.04 6.08221 17.0625 5.99971 17.0625C5.79721 17.0625 5.5947 16.95 5.4972 16.755C5.3547 16.47 5.46722 16.1325 5.75222 15.9975L8.43721 14.655V12.75H9.56221V14.655L12.2472 15.9975C12.5322 16.1325 12.6447 16.47 12.5022 16.755Z" fill="white"/>
<path d="M5.62519 8.81249C5.46769 8.81249 5.3027 8.745 5.1902 8.61C4.9877 8.37 5.02518 8.0175 5.26518 7.815L7.6277 5.8425C7.8452 5.6625 8.12268 5.5875 8.38518 5.6325C8.65518 5.6775 8.8877 5.84248 9.0302 6.08248L9.81769 7.39498L12.0152 5.565C12.2552 5.3625 12.6077 5.39998 12.8102 5.63998C13.0127 5.87998 12.9752 6.23248 12.7352 6.43498L10.3727 8.40748C10.1552 8.58748 9.87769 8.66248 9.61519 8.61748C9.34519 8.57248 9.11268 8.4075 8.97018 8.1675L8.18269 6.855L5.9852 8.68498C5.8802 8.76748 5.75269 8.81249 5.62519 8.81249Z" fill="white"/>
</svg>
