<svg width="16" height="16" viewBox="0 0 16 16" fill="none" xmlns="http://www.w3.org/2000/svg">
<path opacity="0.4" d="M14 14.6665H2C1.72667 14.6665 1.5 14.4398 1.5 14.1665C1.5 13.8932 1.72667 13.6665 2 13.6665H14C14.2733 13.6665 14.5 13.8932 14.5 14.1665C14.5 14.4398 14.2733 14.6665 14 14.6665Z" fill="#292D32"/>
<path opacity="0.4" d="M12.6799 2.31994C11.3866 1.02661 10.1199 0.993275 8.79322 2.31994L7.98655 3.12661C7.91989 3.19328 7.89322 3.29994 7.91989 3.39328C8.42655 5.15994 9.83989 6.57328 11.6066 7.07994C11.6332 7.08661 11.6599 7.09328 11.6866 7.09328C11.7599 7.09328 11.8266 7.06661 11.8799 7.01328L12.6799 6.20661C13.3399 5.55328 13.6599 4.91994 13.6599 4.27994C13.6666 3.61994 13.3466 2.97994 12.6799 2.31994Z" fill="#292D32"/>
<path d="M10.407 7.68654C10.2137 7.5932 10.027 7.49987 9.84704 7.3932C9.70038 7.30654 9.56038 7.2132 9.42038 7.1132C9.30704 7.03987 9.17371 6.9332 9.04704 6.82654C9.03371 6.81987 8.98704 6.77987 8.93371 6.72654C8.71371 6.53987 8.46704 6.29987 8.24704 6.0332C8.22704 6.01987 8.19371 5.9732 8.14704 5.9132C8.08038 5.8332 7.96704 5.69987 7.86704 5.54654C7.78704 5.44654 7.69371 5.29987 7.60704 5.1532C7.50038 4.9732 7.40704 4.7932 7.31371 4.60654C7.22038 4.40654 7.14704 4.2132 7.08038 4.0332L2.89371 8.21987C2.80704 8.30654 2.72704 8.4732 2.70704 8.58654L2.34704 11.1399C2.28038 11.5932 2.40704 12.0199 2.68704 12.3065C2.92704 12.5399 3.26038 12.6665 3.62038 12.6665C3.70038 12.6665 3.78038 12.6599 3.86038 12.6465L6.42038 12.2865C6.54038 12.2665 6.70704 12.1865 6.78704 12.0999L10.9737 7.9132C10.787 7.84654 10.607 7.7732 10.407 7.68654Z" fill="#292D32"/>
</svg>
