<svg width="66" height="66" viewBox="0 0 66 66" fill="none" xmlns="http://www.w3.org/2000/svg">
<rect width="66" height="66" rx="33" fill="#00C04D"/>
<path opacity="0.4" d="M47.475 30.045C46.89 29.205 45.855 28.725 44.67 28.725H38.52C38.115 28.725 37.74 28.56 37.485 28.26C37.215 27.96 37.11 27.54 37.17 27.105L37.935 22.185C38.265 20.715 37.29 19.065 35.82 18.57C34.455 18.06 32.85 18.75 32.205 19.725L25.875 29.13L25.695 29.43V42.69L25.92 42.915L30.675 46.59C31.305 47.22 32.73 47.565 33.735 47.565H39.585C41.595 47.565 43.62 46.05 44.07 44.205L47.76 32.97C48.15 31.905 48.045 30.87 47.475 30.045Z" fill="white"/>
<path d="M22.815 24.57H21.27C18.945 24.57 18 25.47 18 27.69V42.78C18 45 18.945 45.9 21.27 45.9H22.815C25.14 45.9 26.085 45 26.085 42.78V27.69C26.085 25.47 25.14 24.57 22.815 24.57Z" fill="white"/>
</svg>
