<svg width="66" height="66" viewBox="0 0 66 66" fill="none" xmlns="http://www.w3.org/2000/svg">
<rect width="66" height="66" rx="33" fill="#FF4A4A"/>
<path opacity="0.4" d="M44.295 23.295L23.295 44.295C23.265 44.325 23.25 44.34 23.22 44.355C22.65 43.875 22.125 43.35 21.645 42.78C19.365 40.155 18 36.735 18 33C18 24.72 24.72 18 33 18C36.735 18 40.155 19.365 42.78 21.645C43.35 22.125 43.875 22.65 44.355 23.22C44.34 23.25 44.325 23.265 44.295 23.295Z" fill="white"/>
<path opacity="0.4" d="M48 33C48 41.28 41.28 48 33 48C30.015 48 27.24 47.13 24.9 45.6L45.6 24.9C47.13 27.24 48 30.015 48 33Z" fill="white"/>
<path d="M47.655 18.345C47.205 17.895 46.47 17.895 46.02 18.345L18.345 46.035C17.895 46.485 17.895 47.22 18.345 47.67C18.57 47.88 18.855 48 19.155 48C19.455 48 19.74 47.88 19.965 47.655L47.655 19.965C48.12 19.515 48.12 18.795 47.655 18.345Z" fill="white"/>
</svg>
