<svg width="14" height="14" viewBox="0 0 14 14" fill="none" xmlns="http://www.w3.org/2000/svg">
<path opacity="0.4" d="M9.933 0H4.067C1.519 0 0 1.519 0 4.067V9.933C0 12.481 1.519 14 4.067 14H9.933C12.481 14 14 12.481 14 9.933V4.067C14 1.519 12.481 0 9.933 0Z" fill="white"/>
<path d="M11.4171 4.8082C11.4171 5.0952 11.1861 5.3332 10.8921 5.3332H7.21714C6.93014 5.3332 6.69214 5.0952 6.69214 4.8082C6.69214 4.5212 6.93014 4.2832 7.21714 4.2832H10.8921C11.1861 4.2832 11.4171 4.5212 11.4171 4.8082Z" fill="white"/>
<path d="M5.57909 4.13058L4.00409 5.70558C3.89909 5.81058 3.76609 5.85958 3.63309 5.85958C3.50009 5.85958 3.36009 5.81058 3.26209 5.70558L2.73709 5.18058C2.52709 4.97758 2.52709 4.64158 2.73709 4.43858C2.94009 4.23558 3.26909 4.23558 3.47909 4.43858L3.63309 4.59258L4.83709 3.38858C5.04009 3.18558 5.36909 3.18558 5.57909 3.38858C5.78209 3.59158 5.78209 3.92758 5.57909 4.13058Z" fill="white"/>
<path d="M11.4171 9.70859C11.4171 9.99559 11.1861 10.2336 10.8921 10.2336H7.21714C6.93014 10.2336 6.69214 9.99559 6.69214 9.70859C6.69214 9.42159 6.93014 9.18359 7.21714 9.18359H10.8921C11.1861 9.18359 11.4171 9.42159 11.4171 9.70859Z" fill="white"/>
<path d="M5.57909 9.03097L4.00409 10.606C3.89909 10.711 3.76609 10.76 3.63309 10.76C3.50009 10.76 3.36009 10.711 3.26209 10.606L2.73709 10.081C2.52709 9.87797 2.52709 9.54197 2.73709 9.33897C2.94009 9.13597 3.26909 9.13597 3.47909 9.33897L3.63309 9.49297L4.83709 8.28897C5.04009 8.08597 5.36909 8.08597 5.57909 8.28897C5.78209 8.49197 5.78209 8.82797 5.57909 9.03097Z" fill="white"/>
</svg>
