<svg width="16" height="16" viewBox="0 0 16 16" fill="none" xmlns="http://www.w3.org/2000/svg">
<path d="M14.0466 3.48732C12.9733 3.38065 11.8999 3.30065 10.8199 3.24065V3.23398L10.6733 2.36732C10.5733 1.75398 10.4266 0.833984 8.86661 0.833984H7.11994C5.56661 0.833984 5.41994 1.71398 5.31328 2.36065L5.17328 3.21398C4.55328 3.25398 3.93328 3.29398 3.31328 3.35398L1.95328 3.48732C1.67328 3.51398 1.47328 3.76065 1.49994 4.03398C1.52661 4.30732 1.76661 4.50732 2.04661 4.48065L3.40661 4.34732C6.89994 4.00065 10.4199 4.13398 13.9533 4.48732C13.9733 4.48732 13.9866 4.48732 14.0066 4.48732C14.2599 4.48732 14.4799 4.29398 14.5066 4.03398C14.5266 3.76065 14.3266 3.51398 14.0466 3.48732Z" fill="#292D32"/>
<path opacity="0.3991" d="M12.8202 5.42602C12.6602 5.25935 12.4402 5.16602 12.2135 5.16602H3.78683C3.56016 5.16602 3.33349 5.25935 3.18016 5.42602C3.02683 5.59268 2.94016 5.81935 2.95349 6.05268L3.36683 12.8927C3.44016 13.906 3.53349 15.1727 5.86016 15.1727H10.1402C12.4668 15.1727 12.5602 13.9127 12.6335 12.8927L13.0468 6.05935C13.0602 5.81935 12.9735 5.59268 12.8202 5.42602Z" fill="#292D32"/>
<path fill-rule="evenodd" clip-rule="evenodd" d="M6.38672 11.334C6.38672 11.0578 6.61058 10.834 6.88672 10.834H9.10672C9.38286 10.834 9.60672 11.0578 9.60672 11.334C9.60672 11.6101 9.38286 11.834 9.10672 11.834H6.88672C6.61058 11.834 6.38672 11.6101 6.38672 11.334Z" fill="#292D32"/>
<path fill-rule="evenodd" clip-rule="evenodd" d="M5.8335 8.66602C5.8335 8.38987 6.05735 8.16602 6.3335 8.16602H9.66683C9.94297 8.16602 10.1668 8.38987 10.1668 8.66602C10.1668 8.94216 9.94297 9.16602 9.66683 9.16602H6.3335C6.05735 9.16602 5.8335 8.94216 5.8335 8.66602Z" fill="#292D32"/>
</svg>
